<?xml version="1.0" standalone="no"?>
<!DOCTYPE svg PUBLIC "-//W3C//DTD SVG 20010904//EN"
 "http://www.w3.org/TR/2001/REC-SVG-20010904/DTD/svg10.dtd">
<svg version="1.0" xmlns="http://www.w3.org/2000/svg"
 width="1296.000000pt" height="1296.000000pt" viewBox="0 0 1296.000000 1296.000000"
 preserveAspectRatio="xMidYMid meet">
<metadata>
Created by potrace 1.11, written by Peter Selinger 2001-2013
</metadata>
<g transform="translate(0.000000,1296.000000) scale(0.100000,-0.100000)"
fill="#000000" stroke="none">
<path d="M17 9413 c-4 -3 -7 -1360 -7 -3015 l0 -3008 6475 0 6475 0 0 680 0
680 -1089 0 c-718 0 -1099 3 -1117 10 -14 6 -74 53 -133 106 -58 53 -118 102
-133 110 -23 12 -261 14 -1633 12 -1286 -2 -1602 -1 -1588 10 22 16 3137 18
3196 1 26 -7 78 -45 158 -116 85 -74 131 -108 157 -114 20 -5 520 -9 1110 -9
l1072 0 0 190 0 190 -1882 0 c-1761 1 -1885 2 -1920 18 -21 9 -110 80 -199
157 -167 145 -207 174 -248 175 -13 0 -22 3 -18 6 3 4 22 3 42 0 38 -7 79 -40
281 -218 62 -54 128 -105 148 -113 31 -13 270 -15 1916 -15 l1880 0 0 235 0
235 -1412 3 -1413 2 1413 3 1412 2 0 710 0 710 -317 1 c-175 1 -307 5 -293 9
14 4 157 8 318 9 l292 1 0 205 0 205 -1464 -2 c-805 -2 -1459 0 -1453 4 7 4
666 8 1465 8 l1452 0 0 235 0 235 -1897 3 -1898 2 1898 3 1897 2 0 205 0 205
-1104 0 c-756 0 -1114 -3 -1133 -11 -23 -8 -26 -8 -15 3 11 11 224 13 1132 16
l1120 2 0 515 0 515 -6468 0 c-3558 0 -6472 -3 -6475 -7z m8793 -47 c0 -2 -8
-10 -17 -17 -16 -13 -17 -12 -4 4 13 16 21 21 21 13z m-105 -93 c-76 -67 16
-63 -1311 -63 -664 0 -1205 2 -1202 5 3 3 542 5 1199 5 769 0 1206 4 1229 10
19 6 53 26 75 45 22 19 42 34 45 34 3 0 -13 -16 -35 -36z m-5628 -9 c-3 -3
-12 -4 -19 -1 -8 3 -5 6 6 6 11 1 17 -2 13 -5z m8104 -301 c13 -16 12 -17 -3
-4 -10 7 -18 15 -18 17 0 8 8 3 21 -13z m-7538 -38 c286 -33 555 -114 822
-247 153 -76 152 -75 125 -121 -12 -21 -28 -37 -35 -37 -7 0 -82 34 -166 75
-340 164 -632 229 -1039 228 -416 -1 -732 -77 -1112 -269 -224 -114 -396 -240
-584 -428 -290 -292 -504 -640 -610 -994 -18 -63 -34 -97 -47 -104 -23 -12
-97 -3 -122 16 -17 12 -17 16 4 87 119 391 342 764 640 1067 381 388 954 669
1487 731 123 15 500 12 637 -4z m7768 -162 c13 -16 12 -17 -3 -4 -10 7 -18 15
-18 17 0 8 8 3 21 -13z m-7860 -43 c558 -55 1087 -313 1468 -716 413 -437 631
-985 631 -1589 0 -821 -430 -1581 -1128 -1992 -375 -221 -796 -325 -1257 -310
-459 15 -842 134 -1205 373 -544 359 -916 951 -1006 1605 -34 246 -19 601 36
847 147 662 612 1245 1235 1552 379 186 823 269 1226 230z m3247 -17 c-27 -2
-69 -2 -95 0 -27 2 -5 3 47 3 52 0 74 -1 48 -3z m-1607 -560 c203 -212 373
-473 484 -742 148 -358 205 -644 205 -1031 0 -305 -32 -500 -130 -800 -90
-277 -240 -545 -453 -810 -89 -111 -264 -286 -360 -359 -67 -51 -81 -47 -93
28 l-7 43 74 66 c281 252 471 495 620 790 171 342 253 688 252 1072 -1 415
-89 767 -284 1139 -103 196 -198 332 -351 500 -51 56 -68 81 -68 103 0 36 16
68 34 68 7 0 42 -30 77 -67z m5249 7 c-10 -6 -641 -9 -1745 -7 l-1730 2 1735
5 c954 3 1740 6 1745 7 6 2 3 -2 -5 -7z m-2937 -537 c-46 -2 -120 -2 -165 0
-46 1 -9 3 82 3 91 0 128 -2 83 -3z m1180 0 c-7 -2 -19 -2 -25 0 -7 3 -2 5 12
5 14 0 19 -2 13 -5z m1267 -206 c0 -2 -10 -12 -22 -23 l-23 -19 19 23 c18 21
26 27 26 19z m-80 -70 c0 -2 -10 -12 -22 -23 l-23 -19 19 23 c18 21 26 27 26
19z m1278 -53 c40 -16 97 -66 114 -99 5 -11 -5 -3 -23 19 -80 95 -228 112
-329 39 l-35 -26 26 27 c50 53 170 72 247 40z m-1348 -7 c0 -2 -12 -14 -27
-28 l-28 -24 24 28 c23 25 31 32 31 24z m-80 -70 c0 -2 -12 -14 -27 -28 l-28
-24 24 28 c23 25 31 32 31 24z m-70 -62 c0 -9 -64 -45 -80 -45 -8 0 6 11 30
24 25 13 46 24 48 25 1 0 2 -1 2 -4z m1146 -40 c-17 -13 -100 -15 -552 -15
-293 0 -535 3 -537 8 -3 4 235 6 529 4 342 -2 541 1 552 7 25 15 30 12 8 -4z
m-1491 -8 c138 -1 -249 -3 -858 -5 -610 -1 -1106 1 -1104 6 5 6 1323 6 1962
-1z m2465 -497 c-14 -4 -1001 -7 -2195 -7 l-2170 2 2175 5 c1196 3 2184 6
2195 7 14 1 13 -1 -5 -7z m-10857 -92 c14 -7 17 -23 17 -101 1 -176 33 -423
80 -607 147 -574 527 -1102 1030 -1430 136 -88 392 -211 550 -264 215 -71 490
-125 642 -126 76 0 92 -11 123 -80 28 -62 19 -70 -82 -70 -152 0 -377 33 -578
85 -450 115 -901 379 -1211 707 -450 478 -694 1055 -711 1685 -7 227 -6 228
71 218 28 -4 59 -11 69 -17z m10668 -378 c24 -13 59 -81 58 -112 -1 -19 -2
-17 -8 7 -11 43 -27 71 -57 94 -29 22 -25 28 7 11z m-1771 -279 c52 -45 122
-106 154 -134 32 -29 73 -60 90 -69 17 -9 27 -17 22 -18 -15 0 -94 49 -103 64
-4 7 -51 49 -103 94 -91 76 -219 194 -176 161 12 -8 64 -53 116 -98z"/>
<path d="M1593 7693 c-13 -2 -23 -8 -23 -12 0 -13 113 -353 159 -479 64 -176
84 -288 85 -479 1 -99 6 -167 12 -173 6 -6 39 -10 75 -8 l64 3 6 205 c7 235
-2 196 152 654 63 187 90 279 82 283 -7 2 -41 3 -75 1 l-64 -3 -42 -135 c-23
-74 -61 -195 -84 -267 -23 -73 -45 -133 -49 -133 -4 0 -15 26 -25 58 -97 318
-148 462 -168 477 -22 14 -57 17 -105 8z"/>
<path d="M3107 7258 c-16 -12 -17 -38 -15 -353 l3 -340 105 -3 c93 -2 110 0
150 20 24 13 53 37 62 54 48 83 50 463 4 553 -23 44 -85 68 -196 76 -72 5 -99
3 -113 -7z m210 -82 l28 -24 3 -219 c2 -133 -1 -229 -7 -246 -12 -30 -65 -67
-97 -67 -11 0 -29 9 -40 21 -17 19 -19 42 -22 269 -2 169 0 255 8 269 16 31
89 29 127 -3z"/>
<path d="M3558 7259 c-17 -9 -18 -36 -18 -334 0 -398 -13 -367 153 -363 106 3
112 4 115 25 5 31 -28 45 -88 37 -77 -10 -90 6 -90 117 0 126 6 136 79 145 36
4 62 12 65 20 11 29 -6 42 -65 49 -53 6 -62 10 -70 34 -6 14 -9 61 -7 104 4
97 14 107 104 107 54 0 64 3 69 20 13 41 -10 50 -124 50 -58 0 -114 -5 -123
-11z"/>
<path d="M3903 7263 c-10 -4 -13 -82 -13 -343 0 -364 0 -366 52 -358 l23 3 3
218 c1 119 6 217 11 217 5 0 49 -93 97 -206 48 -113 94 -213 102 -221 8 -8 24
-13 36 -11 21 3 21 5 24 340 2 296 0 338 -14 352 -18 19 -50 21 -60 5 -3 -6
-7 -102 -8 -213 0 -110 -5 -202 -10 -204 -8 -3 -47 82 -150 331 -38 90 -54
106 -93 90z"/>
<path d="M2331 7237 c-5 -12 -16 -61 -26 -107 -9 -47 -39 -188 -66 -314 -28
-126 -48 -235 -45 -243 3 -7 20 -13 41 -13 41 0 43 4 59 94 12 67 32 86 92 86
51 0 73 -26 87 -105 l12 -70 43 -3 c35 -3 42 0 42 15 0 24 -137 660 -145 673
-3 5 -24 10 -46 10 -32 0 -41 -4 -48 -23z m83 -287 c27 -154 29 -145 -27 -148
-35 -2 -49 1 -53 12 -6 16 33 261 44 281 7 11 14 -17 36 -145z"/>
<path d="M2660 7241 c-11 -21 -14 -619 -4 -659 6 -20 12 -23 48 -20 l41 3 5
160 5 160 33 3 c40 4 47 -10 88 -178 15 -63 34 -123 42 -132 14 -17 72 -25 84
-13 3 3 -9 56 -27 118 -18 62 -38 136 -45 165 -12 53 -12 54 18 85 39 40 52
75 52 136 0 139 -68 191 -246 191 -72 0 -85 -3 -94 -19z m211 -70 c26 -26 29
-36 29 -91 0 -51 -4 -65 -24 -85 -27 -27 -91 -43 -115 -28 -13 8 -17 32 -19
108 -1 54 0 105 2 112 3 8 22 13 51 13 38 0 52 -5 76 -29z"/>
<path d="M2080 5885 l0 -575 26 -6 c14 -4 103 -5 198 -2 144 4 178 8 216 25
123 56 190 202 160 349 -21 99 -74 186 -138 226 l-36 22 31 12 c42 18 90 76
104 126 18 70 7 205 -21 263 -54 107 -132 135 -377 135 l-163 0 0 -575z m341
444 c68 -21 84 -47 87 -152 5 -146 -32 -192 -162 -204 -104 -9 -106 -7 -106
192 0 89 3 165 7 168 11 11 133 8 174 -4z m36 -505 c55 -41 68 -78 68 -194 0
-88 -3 -111 -20 -140 -31 -52 -72 -71 -158 -73 -111 -3 -107 -11 -107 223 0
108 3 200 8 204 4 4 46 6 94 4 69 -2 92 -7 115 -24z"/>
<path d="M4165 6004 c-46 -23 -83 -63 -97 -103 -9 -25 -13 -102 -13 -251 0
-201 1 -218 22 -263 17 -38 31 -52 65 -67 71 -32 149 -22 187 24 18 21 31 20
31 -3 0 -26 25 -44 50 -36 20 6 20 12 18 167 -3 186 -5 188 -97 188 -67 0 -84
-9 -79 -41 2 -20 10 -25 43 -29 38 -5 40 -7 43 -43 5 -60 -16 -145 -41 -162
-35 -24 -90 -19 -118 11 -24 25 -24 29 -27 232 -2 113 -1 221 3 239 9 49 37
73 85 73 55 0 77 -24 85 -95 l7 -56 42 3 c40 3 41 4 44 41 2 24 -6 57 -22 93
-21 45 -33 58 -68 74 -52 24 -122 25 -163 4z"/>
<path d="M2807 6004 c-10 -11 -8 -413 3 -517 11 -109 33 -149 95 -173 58 -22
154 -16 193 12 15 11 37 39 48 62 20 37 22 64 29 317 5 212 4 279 -5 290 -18
22 -67 19 -80 -4 -6 -12 -10 -118 -10 -276 0 -272 -6 -311 -48 -334 -47 -25
-103 -3 -124 48 -7 15 -14 140 -17 301 l-6 275 -35 3 c-20 2 -39 0 -43 -4z"/>
<path d="M3276 5995 c-13 -36 4 -45 84 -45 53 0 81 -4 89 -13 8 -11 -12 -77
-85 -278 -109 -299 -116 -326 -89 -345 20 -15 178 -19 250 -6 34 6 40 11 40
32 0 25 -1 25 -98 28 -66 2 -99 7 -103 15 -2 7 43 145 101 306 59 162 104 300
101 307 -8 21 -282 20 -290 -1z"/>
<path d="M3746 5988 c-7 -13 -17 -41 -21 -63 -3 -22 -33 -168 -66 -323 -32
-156 -57 -288 -53 -293 8 -14 61 -11 77 6 8 8 18 38 22 67 11 83 25 98 90 98
65 0 79 -15 89 -100 4 -30 12 -60 18 -67 15 -18 67 -16 74 2 9 21 -128 666
-144 682 -22 21 -70 16 -86 -9z m79 -284 c14 -71 25 -135 25 -141 0 -9 -18
-13 -55 -13 -65 0 -63 -8 -35 140 25 132 30 153 36 148 2 -3 15 -63 29 -134z"/>
<path d="M4537 6004 c-4 -4 -7 -159 -7 -344 0 -248 3 -339 12 -348 14 -14 225
-17 246 -3 8 4 12 19 10 32 -3 23 -8 24 -78 27 -41 2 -79 7 -85 13 -6 6 -12
132 -15 317 l-5 307 -35 3 c-20 2 -39 0 -43 -4z"/>
<path d="M4930 5993 c-63 -32 -81 -87 -87 -265 -6 -177 8 -321 35 -357 41 -55
68 -66 157 -66 100 0 127 15 165 91 24 48 25 55 25 259 0 235 -5 262 -61 316
-33 32 -39 34 -117 37 -64 2 -90 -1 -117 -15z m169 -72 c28 -28 33 -80 29
-304 l-3 -199 -28 -24 c-57 -49 -139 -23 -152 48 -3 18 -5 129 -3 246 3 211 3
214 27 233 32 26 104 26 130 0z"/>
</g>
</svg>
